<svg t="1564991170828" class="icon" viewBox="0 0 1024 1024" version="1.1" xmlns="http://www.w3.org/2000/svg" p-id="2039" width="200" height="200"><path d="M1024 512c0-282.331429-229.668571-512-512-512S0 229.668571 0 512s229.668571 512 512 512 512-229.668571 512-512zM73.142857 512C73.142857 270.006857 270.006857 73.142857 512 73.142857s438.857143 196.864 438.857143 438.857143-196.864 438.857143-438.857143 438.857143S73.142857 753.993143 73.142857 512z" p-id="2040" fill="#d8d8d8"></path><path d="M612.022857 721.92a36.534857 36.534857 0 0 0-0.438857-51.712l-158.902857-156.196571 156.781714-155.062858a36.571429 36.571429 0 1 0-51.419428-52.004571l-183.149715 181.138286a36.388571 36.388571 0 0 0-8.082285 39.862857c0.475429 1.133714 1.462857 2.011429 2.048 3.072 1.645714 3.035429 3.181714 6.144 5.741714 8.740571 0.073143 0.073143 0.182857 0.073143 0.256 0.182857l0.182857 0.256 185.270857 182.125715a36.498286 36.498286 0 0 0 51.712-0.402286z" p-id="2041" fill="#d8d8d8"></path></svg>