<svg t="1564990879951" class="icon" viewBox="0 0 1024 1024" version="1.1" xmlns="http://www.w3.org/2000/svg" p-id="2469" width="200" height="200"><path d="M512 1024C229.668571 1024 0 794.331429 0 512S229.668571 0 512 0s512 229.668571 512 512-229.668571 512-512 512z m0-950.857143C270.006857 73.142857 73.142857 270.006857 73.142857 512s196.864 438.857143 438.857143 438.857143 438.857143-196.864 438.857143-438.857143S753.993143 73.142857 512 73.142857z" p-id="2470" fill="#d8d8d8"></path><path d="M721.92 612.022857a36.534857 36.534857 0 0 1-51.712-0.438857l-156.196571-158.902857-155.062858 156.781714a36.571429 36.571429 0 1 1-52.004571-51.419428l181.138286-183.149715a36.388571 36.388571 0 0 1 39.862857-8.082285c1.133714 0.475429 2.011429 1.462857 3.072 2.048 3.035429 1.645714 6.144 3.181714 8.740571 5.741714 0.073143 0.073143 0.073143 0.182857 0.182857 0.256l0.256 0.182857 182.125715 185.270857a36.498286 36.498286 0 0 1-0.402286 51.712z" p-id="2471" fill="#d8d8d8"></path></svg>